<?xml version="1.0" standalone="no"?>
<!DOCTYPE svg PUBLIC "-//W3C//DTD SVG 20010904//EN"
 "http://www.w3.org/TR/2001/REC-SVG-20010904/DTD/svg10.dtd">
<svg version="1.0" xmlns="http://www.w3.org/2000/svg"
 width="700.000000pt" height="700.000000pt" viewBox="0 0 700.000000 700.000000"
 preserveAspectRatio="xMidYMid meet">
<metadata>
Created by potrace 1.11, written by Peter Selinger 2001-2013
</metadata>
<g transform="translate(0.000000,700.000000) scale(0.100000,-0.100000)"
fill="#000000" stroke="none">
<path d="M4878 6503 l-348 -348 -323 323 -322 322 -575 -575 -575 -575 630
-630 630 -630 -705 -705 -705 -705 -630 630 -630 630 -575 -575 -575 -575 323
-323 322 -322 -350 -350 -350 -350 312 -312 313 -313 -65 -66 c-36 -37 -95
-97 -132 -134 -38 -36 -68 -71 -68 -76 0 -5 86 -95 190 -199 l190 -190 137
138 138 137 320 -320 320 -320 350 350 350 350 305 -305 305 -305 575 575 575
575 -630 630 -630 630 705 705 705 705 630 -630 630 -630 575 575 575 575
-305 305 -305 305 350 350 350 350 -320 320 -320 320 138 138 137 137 -195
195 -194 194 -138 -137 -137 -138 -311 311 c-170 170 -312 310 -315 310 -3 0
-161 -156 -352 -347z m792 -868 l435 -435 -155 -155 -155 -155 -437 437 -438
438 152 152 c84 84 155 153 158 153 3 0 201 -196 440 -435z m165 -1935 l-190
-190 -1070 1070 -1070 1070 190 190 190 190 1070 -1070 1070 -1070 -190 -190z
m-3435 -1305 l1065 -1065 -190 -190 -190 -190 -1070 1070 -1070 1070 185 185
c102 102 189 185 195 185 5 0 489 -479 1075 -1065z m-750 -780 l435 -435 -155
-155 -155 -155 -440 435 -440 434 155 156 c85 85 157 155 160 155 3 0 201
-196 440 -435z"/>
</g>
</svg>
